<svg viewBox="0 0 240 248" xmlns="http://www.w3.org/2000/svg" width="240" height="248">
<title>kaamos — brand mark</title>
<desc>Eight amber station hexes in ring around the violet Station 9 (Hiljaisuus) at center. KAAMOS wordmark below.</desc>

<rect width="240" height="248" fill="#070711"/>

<g stroke="#c8a050" stroke-width="0.6" opacity="0.15">
  <line x1="120" y1="118" x2="174" y2="118"/>
  <line x1="120" y1="118" x2="158.2" y2="79.8"/>
  <line x1="120" y1="118" x2="120" y2="64"/>
  <line x1="120" y1="118" x2="81.8" y2="79.8"/>
  <line x1="120" y1="118" x2="66" y2="118"/>
  <line x1="120" y1="118" x2="81.8" y2="156.2"/>
  <line x1="120" y1="118" x2="120" y2="172"/>
  <line x1="120" y1="118" x2="158.2" y2="156.2"/>
</g>

<g fill="#c8a050" fill-opacity="0.07" stroke="#c8a050" stroke-width="1.8">
  <polygon points="191,118 182.5,132.72 165.5,132.72 157,118 165.5,103.28 182.5,103.28"/>
  <polygon points="175.2,79.8 166.7,94.52 149.7,94.52 141.2,79.8 149.7,65.08 166.7,65.08"/>
  <polygon points="137,64 128.5,78.72 111.5,78.72 103,64 111.5,49.28 128.5,49.28"/>
  <polygon points="98.8,79.8 90.3,94.52 73.3,94.52 64.8,79.8 73.3,65.08 90.3,65.08"/>
  <polygon points="83,118 74.5,132.72 57.5,132.72 49,118 57.5,103.28 74.5,103.28"/>
  <polygon points="98.8,156.2 90.3,170.92 73.3,170.92 64.8,156.2 73.3,141.48 90.3,141.48"/>
  <polygon points="137,172 128.5,186.72 111.5,186.72 103,172 111.5,157.28 128.5,157.28"/>
  <polygon points="175.2,156.2 166.7,170.92 149.7,170.92 141.2,156.2 149.7,141.48 166.7,141.48"/>
</g>

<g fill="#c8a050" opacity="0.75">
  <circle cx="174" cy="118" r="2.5"/>
  <circle cx="158.2" cy="79.8" r="2.5"/>
  <circle cx="120" cy="64" r="2.5"/>
  <circle cx="81.8" cy="79.8" r="2.5"/>
  <circle cx="66" cy="118" r="2.5"/>
  <circle cx="81.8" cy="156.2" r="2.5"/>
  <circle cx="120" cy="172" r="2.5"/>
  <circle cx="158.2" cy="156.2" r="2.5"/>
</g>

<polygon points="142,118 131,137.05 109,137.05 98,118 109,98.95 131,98.95"
         fill="#8030c0" fill-opacity="0.18" stroke="#8030c0" stroke-width="1.8"/>

<circle cx="120" cy="118" r="4.5" fill="#8030c0" opacity="0.9"/>

<text x="120" y="222"
      font-family="'Courier New', Courier, monospace"
      font-size="20"
      font-weight="bold"
      fill="#c8a050"
      text-anchor="middle"
      letter-spacing="7">KAAMOS</text>

<line x1="52" y1="232" x2="188" y2="232" stroke="#c8a050" stroke-width="0.6" opacity="0.35"/>

</svg>
